<svg width="791" height="600" viewBox="0 0 791 600" fill="none" xmlns="http://www.w3.org/2000/svg">
<path d="M271.505 196.234C268.992 201.614 261.291 231.182 293.549 237.633" stroke="#5476C0" stroke-dasharray="1 1"/>
<path d="M116.662 171.78C42.1906 259.598 67.1026 402.444 88.8675 462.891C225.633 760.997 290.487 240.118 571.96 410.695C853.434 581.272 862.257 -83.8162 601.519 128.194C340.782 340.205 209.751 62.0082 116.662 171.78Z" fill="url(#paint0_linear_1701_3412)" fill-opacity="0.14"/>
<ellipse cx="453.765" cy="300" rx="289.247" ry="300" fill="url(#paint1_linear_1701_3412)" fill-opacity="0.07"/>
<path d="M266.668 134.409C237.097 146.234 223.656 222.042 291.398 238.171" stroke="#5476C0" stroke-dasharray="1 1"/>
<g filter="url(#filter0_d_1701_3412)">
<path d="M639.855 364.683C638.392 364.416 636.889 364.478 635.454 364.866L484.754 405.561C483.117 406.003 481.393 406.022 479.746 405.614L346.88 372.751C341.65 371.457 336.168 371.596 331.011 373.152L86.4483 446.943C75.5448 450.233 77.7414 466.277 89.1278 466.515L143.133 467.644C146.257 467.709 149.373 467.286 152.367 466.389L335.527 411.531C337.869 410.83 340.388 411.011 342.606 412.04L460.748 466.87C467.659 470.078 475.531 470.536 482.767 468.151L729.671 386.792C732.624 385.819 732.329 381.549 729.27 380.991L639.855 364.683Z" fill="white" fill-opacity="0.28" shape-rendering="crispEdges"/>
</g>
<path d="M59.7181 466.5C39.6788 469.65 19.7582 473.519 0 478.094C46.3815 488.981 95.0055 483.419 142.262 489.438C147.334 490.081 152.412 490.863 157.522 490.8C164.231 490.713 170.827 489.175 177.418 487.938C211.624 481.506 247.33 482.969 280.538 472.538C258.905 469.156 237.223 466.125 215.497 463.438L59.7181 466.5Z" fill="black" fill-opacity="0.14"/>
<path d="M188.172 254.836H95.6992V261.288H188.172V254.836Z" fill="white"/>
<path d="M210.178 272.93L207.092 309.961L197.272 427.637L194.036 466.443C193.886 468.218 192.406 469.581 190.632 469.581H93.5462C91.7659 469.581 90.2854 468.218 90.1418 466.443L86.906 427.637L77.08 309.961L73.9941 272.93H210.178Z" fill="#10136C"/>
<path d="M193.998 278.684H90.3223V302.834H193.998V278.684Z" fill="#5174C0"/>
<path d="M211.785 261.574H71.5413C70.2732 261.574 69.155 262.418 68.8052 263.637L66.1504 272.931H217.176L214.521 263.637C214.171 262.418 213.059 261.574 211.785 261.574Z" fill="#A7BFEF"/>
<path d="M207.094 310.074L197.274 427.744H86.9018L77.082 310.074H207.094Z" fill="#D9D9D9"/>
<path d="M164.679 360.375C157.345 370.156 138.605 375.05 130.46 362.819C124.738 368.544 114.549 369.8 107.641 365.431V410.713H176.235V366.056C171.931 366.188 167.871 364.631 164.679 360.375Z" fill="#A4A4A4"/>
<path d="M107.641 333.225V365.431C114.549 369.806 124.738 368.55 130.46 362.819C138.605 375.05 157.345 370.156 164.679 360.375C167.871 364.631 171.925 366.188 176.229 366.05V333.219H107.641V333.225Z" fill="#A4A4A4"/>
<path d="M171.763 333.227H112.113V410.715H171.763V333.227Z" fill="#092E43"/>
<path d="M95.6074 343.691H92.8401C90.3352 343.691 88.2988 341.66 88.2988 339.148V333.879H100.142V339.148C100.149 341.66 98.1123 343.691 95.6074 343.691Z" fill="#1A40A6"/>
<path d="M107.453 343.691H104.686C102.181 343.691 100.145 341.66 100.145 339.148V333.879H111.988V339.148C111.994 341.66 109.964 343.691 107.453 343.691Z" fill="#EAD1B7"/>
<path d="M119.301 343.691H116.534C114.029 343.691 111.992 341.66 111.992 339.148V333.879H123.836V339.148C123.842 341.66 121.806 343.691 119.301 343.691Z" fill="#1A40A6"/>
<path d="M131.146 343.691H128.379C125.874 343.691 123.838 341.66 123.838 339.148V333.879H135.682V339.148C135.688 341.66 133.658 343.691 131.146 343.691Z" fill="#EAD1B7"/>
<path d="M142.994 343.691H140.227C137.722 343.691 135.686 341.66 135.686 339.148V333.879H147.529V339.148C147.535 341.66 145.499 343.691 142.994 343.691Z" fill="#1A40A6"/>
<path d="M154.84 343.691H152.073C149.568 343.691 147.531 341.66 147.531 339.148V333.879H159.375V339.148C159.381 341.66 157.351 343.691 154.84 343.691Z" fill="#EAD1B7"/>
<path d="M166.688 343.691H163.92C161.415 343.691 159.379 341.66 159.379 339.148V333.879H171.223V339.148C171.229 341.66 169.192 343.691 166.688 343.691Z" fill="#1A40A6"/>
<path d="M190.381 343.691H187.614C185.109 343.691 183.072 341.66 183.072 339.148V333.879H194.916V339.148C194.922 341.66 192.886 343.691 190.381 343.691Z" fill="#1A40A6"/>
<path d="M178.533 343.691H175.766C173.261 343.691 171.225 341.66 171.225 339.148V333.879H183.068V339.148C183.075 341.66 181.044 343.691 178.533 343.691Z" fill="#EAD1B7"/>
<path d="M106.689 322.645H96.7131L88.2988 333.876H100.149L106.689 322.645Z" fill="#1A40A6"/>
<path d="M116.667 322.645H106.691L100.15 333.876H111.994L116.667 322.645Z" fill="#FFF4EA"/>
<path d="M126.647 322.645H116.665L111.992 333.876H123.842L126.647 322.645Z" fill="#1A40A6"/>
<path d="M136.624 322.645H126.649L123.844 333.876H135.687L136.624 322.645Z" fill="#FFF4EA"/>
<path d="M146.598 322.645H136.623L135.686 333.876H147.535L146.598 322.645Z" fill="#1A40A6"/>
<path d="M156.574 322.645H146.598L147.535 333.876H159.378L156.574 322.645Z" fill="#FFF4EA"/>
<path d="M166.552 322.645H156.576L159.381 333.876H171.231L166.552 322.645Z" fill="#1A40A6"/>
<path d="M176.527 322.645H166.551L171.23 333.876H183.073L176.527 322.645Z" fill="#FFF4EA"/>
<path d="M186.509 322.645H176.527L183.074 333.876H194.924L186.509 322.645Z" fill="#1A40A6"/>
<path d="M181.738 410.66H101.48V414.954H181.738V410.66Z" fill="#A4A4A4"/>
<path d="M174.614 459.512V479.061L151.613 469.685L152.151 450.551L174.614 459.512Z" fill="#3C5D8E"/>
<path d="M174.586 459.516V479.063L196.772 470.287V451.629L174.586 459.516Z" fill="#124866"/>
<path d="M196.775 451.627L174.589 459.513L151.613 450.551L174.589 445.172L196.775 451.627Z" fill="#7C9ED1"/>
<path d="M167.205 456.467V462.922L161.291 460.095V453.777L167.205 456.467Z" fill="#8496B0"/>
<path d="M188.173 448.942L167.743 456.473L161.291 454.161L181.183 447.328L188.173 448.942Z" fill="white"/>
<path d="M171.971 467.664L173.518 472.18L172.515 471.632V477.02L171.427 476.425V471.037L170.424 470.496L171.971 467.664Z" fill="#102E74"/>
<path d="M166.668 469.524L168.215 466.691L169.763 471.207L168.76 470.659V476.047L167.671 475.452V470.071L166.668 469.524Z" fill="#102E74"/>
<path d="M209.023 462.743V482.291L186.021 472.915L186.559 453.781L209.023 462.743Z" fill="#3C5D8E"/>
<path d="M208.994 462.746V482.294L231.18 473.518V454.859L208.994 462.746Z" fill="#124866"/>
<path d="M231.183 454.857L208.997 462.743L186.021 453.782L208.997 448.402L231.183 454.857Z" fill="#7C9ED1"/>
<path d="M201.613 459.697V466.153L195.699 463.325V457.008L201.613 459.697Z" fill="#8496B0"/>
<path d="M222.581 452.172L202.151 459.703L195.699 457.391L215.592 450.559L222.581 452.172Z" fill="white"/>
<path d="M206.377 470.895L207.925 475.41L206.922 474.863V480.25L205.833 479.655V474.268L204.83 473.727L206.377 470.895Z" fill="#102E74"/>
<path d="M201.074 472.754L202.621 469.922L204.169 474.437L203.166 473.89V479.277L202.077 478.683V473.302L201.074 472.754Z" fill="#102E74"/>
<path d="M193.97 442.297V461.846L170.969 452.47L171.506 433.336L193.97 442.297Z" fill="#3C5D8E"/>
<path d="M193.941 442.301V461.848L216.127 453.072V434.414L193.941 442.301Z" fill="#124866"/>
<path d="M216.13 434.412L193.944 442.298L170.969 433.336L193.944 427.957L216.13 434.412Z" fill="#7C9ED1"/>
<path d="M186.56 439.252V445.707L180.646 442.88V436.562L186.56 439.252Z" fill="#8496B0"/>
<path d="M207.528 431.727L187.098 439.258L180.646 436.946L200.539 430.113L207.528 431.727Z" fill="white"/>
<path d="M191.327 450.445L192.874 454.961L191.871 454.413V459.801L190.782 459.206V453.818L189.779 453.278L191.327 450.445Z" fill="#102E74"/>
<path d="M186.023 452.305L187.571 449.473L189.118 453.988L188.115 453.441V458.828L187.026 458.233V452.853L186.023 452.305Z" fill="#102E74"/>
<path d="M84.1848 468.211V487.76L61.1836 478.384L61.7212 459.25L84.1848 468.211Z" fill="#3C5D8E"/>
<path d="M84.1562 468.215V487.762L106.342 478.987V460.328L84.1562 468.215Z" fill="#124866"/>
<path d="M106.345 460.326L84.159 468.212L61.1836 459.25L84.159 453.871L106.345 460.326Z" fill="#7C9ED1"/>
<path d="M76.7753 465.166V471.621L70.8613 468.794V462.477L76.7753 465.166Z" fill="#8496B0"/>
<path d="M97.743 457.641L77.3129 465.172L70.8613 462.86L90.7538 456.027L97.743 457.641Z" fill="white"/>
<path d="M81.5414 476.363L83.0887 480.879L82.0858 480.331V485.719L80.997 485.124V479.736L79.9941 479.196L81.5414 476.363Z" fill="#102E74"/>
<path d="M76.2383 478.223L77.7855 475.391L79.3328 479.906L78.33 479.359V484.746L77.2412 484.151V478.771L76.2383 478.223Z" fill="#102E74"/>
<path d="M84.1848 443.465V463.014L61.1836 453.638L61.7212 434.504L84.1848 443.465Z" fill="#3C5D8E"/>
<path d="M84.1562 443.469V463.016L106.342 454.24V435.582L84.1562 443.469Z" fill="#124866"/>
<path d="M106.345 435.58L84.159 443.466L61.1836 434.504L84.159 429.125L106.345 435.58Z" fill="#7C9ED1"/>
<path d="M76.7753 440.42V446.875L70.8613 444.048V437.73L76.7753 440.42Z" fill="#8496B0"/>
<path d="M97.743 432.895L77.3129 440.426L70.8613 438.114L90.7538 431.281L97.743 432.895Z" fill="white"/>
<path d="M81.5414 451.613L83.0887 456.129L82.0858 455.581V460.969L80.997 460.374V454.986L79.9941 454.446L81.5414 451.613Z" fill="#102E74"/>
<path d="M76.2383 453.473L77.7855 450.641L79.3328 455.156L78.33 454.609V459.996L77.2412 459.401V454.021L76.2383 453.473Z" fill="#102E74"/>
<path d="M33.7551 469.176V488.725L10.7539 479.349L11.2915 460.215L33.7551 469.176Z" fill="#3C5D8E"/>
<path d="M33.7266 469.18V488.727L55.9124 479.951V461.293L33.7266 469.18Z" fill="#124866"/>
<path d="M55.9152 461.291L33.7293 469.177L10.7539 460.215L33.7293 454.836L55.9152 461.291Z" fill="#7C9ED1"/>
<path d="M26.3456 466.131V472.586L20.4316 469.759V463.441L26.3456 466.131Z" fill="#8496B0"/>
<path d="M47.3134 458.606L26.8833 466.137L20.4316 463.825L40.3241 456.992L47.3134 458.606Z" fill="white"/>
<path d="M31.1098 477.328L32.657 481.844L31.6542 481.296V486.684L30.5654 486.089V480.701L29.5625 480.16L31.1098 477.328Z" fill="#102E74"/>
<path d="M25.8066 479.188L27.3539 476.355L28.9012 480.871L27.8983 480.323V485.711L26.8095 485.116V479.735L25.8066 479.188Z" fill="#102E74"/>
<path d="M45.5832 444.446V463.994L22.582 454.618L23.1197 435.484L45.5832 444.446Z" fill="#3C5D8E"/>
<path d="M45.5547 444.449V463.997L67.7405 455.221V436.562L45.5547 444.449Z" fill="#124866"/>
<path d="M67.7433 436.561L45.5575 444.446L22.582 435.485L45.5575 430.105L67.7433 436.561Z" fill="#7C9ED1"/>
<path d="M38.1737 441.401V447.856L32.2598 445.028V438.711L38.1737 441.401Z" fill="#8496B0"/>
<path d="M59.1415 433.875L38.7114 441.406L32.2598 439.094L52.1522 432.262L59.1415 433.875Z" fill="white"/>
<path d="M42.9379 452.598L44.4851 457.113L43.4823 456.566V461.953L42.3935 461.358V455.971L41.3906 455.43L42.9379 452.598Z" fill="#102E74"/>
<path d="M37.6348 454.457L39.182 451.625L40.7293 456.141L39.7264 455.593V460.981L38.6376 460.386V455.005L37.6348 454.457Z" fill="#102E74"/>
<path d="M55.259 418.641V438.19L32.2578 428.814L32.7954 409.68L55.259 418.641Z" fill="#3C5D8E"/>
<path d="M55.2305 418.644V438.192L77.4163 429.416V410.758L55.2305 418.644Z" fill="#124866"/>
<path d="M77.4191 410.756L55.2332 418.641L32.2578 409.68L55.2332 404.301L77.4191 410.756Z" fill="#7C9ED1"/>
<path d="M47.8495 415.596V422.051L41.9355 419.224V412.906L47.8495 415.596Z" fill="#8496B0"/>
<path d="M68.8173 408.071L48.3872 415.602L41.9355 413.29L61.828 406.457L68.8173 408.071Z" fill="white"/>
<path d="M52.6137 426.789L54.1609 431.305L53.1581 430.757V436.145L52.0693 435.55V430.162L51.0664 429.621L52.6137 426.789Z" fill="#102E74"/>
<path d="M47.3105 428.649L48.8578 425.816L50.4051 430.332L49.4022 429.784V435.172L48.3134 434.577V429.196L47.3105 428.649Z" fill="#102E74"/>
<path d="M142.355 400.018V416.153L119.354 408.414L119.891 392.621L142.355 400.018Z" fill="#3C5D8E"/>
<path d="M142.326 400.013V416.148L164.512 408.905V393.504L142.326 400.013Z" fill="#124866"/>
<path d="M164.515 393.508L142.329 400.016L119.354 392.62L142.329 388.18L164.515 393.508Z" fill="#7C9ED1"/>
<path d="M134.945 397.501V402.829L129.031 400.496V395.281L134.945 397.501Z" fill="#8496B0"/>
<path d="M155.913 391.289L135.483 397.505L129.031 395.597L148.924 389.957L155.913 391.289Z" fill="white"/>
<path d="M139.711 406.742L141.259 410.469L140.256 410.017V414.464L139.167 413.973V409.526L138.164 409.08L139.711 406.742Z" fill="#102E74"/>
<path d="M134.408 408.279L135.955 405.941L137.503 409.669L136.5 409.217V413.663L135.411 413.172V408.731L134.408 408.279Z" fill="#102E74"/>
<path d="M143.431 381.733V397.868L120.43 390.129L120.967 374.336L143.431 381.733Z" fill="#3C5D8E"/>
<path d="M143.402 381.728V397.863L165.588 390.619V375.219L143.402 381.728Z" fill="#124866"/>
<path d="M165.591 375.223L143.405 381.731L120.43 374.335L143.405 369.895L165.591 375.223Z" fill="#7C9ED1"/>
<path d="M136.021 379.216V384.544L130.107 382.21V376.996L136.021 379.216Z" fill="#8496B0"/>
<path d="M156.989 373.004L136.559 379.22L130.107 377.312L150 371.672L156.989 373.004Z" fill="white"/>
<path d="M140.786 388.453L142.333 392.18L141.33 391.728V396.175L140.241 395.684V391.237L139.238 390.791L140.786 388.453Z" fill="#102E74"/>
<path d="M135.482 389.99L137.03 387.652L138.577 391.379L137.574 390.928V395.374L136.485 394.883V390.442L135.482 389.99Z" fill="#102E74"/>
<rect x="97.8496" y="287.098" width="87.0968" height="8.60215" fill="#10136C"/>
<path d="M260.752 425.806L224.73 410.753L265.053 400L306.451 410.753L260.752 425.806Z" stroke="white" stroke-dasharray="2 2"/>
<path d="M633.871 401.076L590.322 388.173L638.172 375.27L686.021 385.485L633.871 401.076Z" stroke="white" stroke-dasharray="2 2"/>
<path d="M263.863 404.627V420.763L240.861 413.024L241.399 397.23L263.863 404.627Z" fill="#3C5D8E"/>
<path d="M263.834 404.623V420.757L286.02 413.514V398.113L263.834 404.623Z" fill="#124866"/>
<path d="M286.023 398.117L263.837 404.626L240.861 397.229L263.837 392.789L286.023 398.117Z" fill="#7C9ED1"/>
<path d="M256.453 402.111V407.439L250.539 405.105V399.891L256.453 402.111Z" fill="#8496B0"/>
<path d="M277.421 395.898L256.991 402.114L250.539 400.206L270.432 394.566L277.421 395.898Z" fill="white"/>
<path d="M261.219 411.348L262.766 415.075L261.764 414.623V419.07L260.675 418.579V414.132L259.672 413.685L261.219 411.348Z" fill="#102E74"/>
<path d="M255.916 412.885L257.463 410.547L259.011 414.274L258.008 413.822V418.269L256.919 417.778V413.337L255.916 412.885Z" fill="#102E74"/>
<path d="M180.107 436.023L241.935 418.281" stroke="white" stroke-dasharray="2 2"/>
<path d="M494.623 430.106L609.139 393.547" stroke="white" stroke-dasharray="2 2"/>
<path d="M289.785 404.839L349.463 385.484" stroke="white" stroke-dasharray="2 2"/>
<path d="M475.918 432.955L349.783 375.485C335.55 368.786 349.783 367.297 349.783 351.817L345.158 68.8339C345.158 60.9635 346.773 68.8486 343.547 68.8486C358.063 53.2685 375.268 54.8836 375.268 54.8836C381.182 55.4209 382.794 56.4967 385.482 57.5669L483.919 99.8218C498.152 106.521 509.676 124.513 509.676 139.993V414.17C509.676 422.391 506.424 428.259 501.228 430.951C483.87 442.34 479.584 439.16 479.249 439.251C474.643 440.513 482.134 435.882 475.918 432.955Z" fill="#0D105A"/>
<path d="M471.035 436.953L366.6 393.8C351.782 387.117 339.785 369.17 339.785 353.727V80.2157C339.785 64.7733 351.799 57.675 366.6 64.358L471.035 107.511C485.853 114.194 497.85 132.141 497.85 147.584V421.082C497.85 436.538 485.853 443.636 471.035 436.953Z" fill="#134591"/>
<path d="M367.105 72.4439C356.775 67.8124 348.387 71.5202 348.387 80.731V356.938C348.387 366.148 356.758 377.389 367.105 382.02L467.303 425.637C477.633 430.268 486.021 426.56 486.021 417.349V141.143C486.021 131.932 477.65 120.692 467.303 116.06L367.105 72.4439Z" fill="white"/>
<path d="M504.302 225.498C502.52 226.564 501.076 225.433 501.076 222.969V209.023C501.076 206.559 502.52 203.705 504.302 202.631C506.084 201.566 507.528 202.696 507.528 205.16V219.107C507.528 221.571 506.084 224.425 504.302 225.498Z" fill="#0C55B3"/>
<path d="M368.085 279.624L370.939 283.817L379.262 276.497" stroke="black" stroke-width="3"/>
<path d="M407.545 341.646L437.37 355.328L436.95 350.816L407.125 337.134L407.545 341.646ZM419.524 337.409L448.64 350.558L448.219 346.046L419.104 332.897L419.524 337.409ZM403.679 335.583L383.765 326.516L384.186 331.028L404.099 340.095L403.679 335.583ZM415.658 331.345L382.797 316.113L383.217 320.625L416.078 335.857L415.658 331.345Z" fill="#8D96CA" fill-opacity="0.2"/>
<path d="M376.58 309.704C376.57 308.915 376.096 308.196 375.37 307.869L356.166 299.219C354.804 298.605 353.29 299.616 353.326 301.096C353.472 307.206 353.36 315.337 353.462 319.456C353.48 320.179 353.903 320.83 354.551 321.167L373.937 331.237C375.278 331.933 376.852 330.981 376.833 329.484L376.58 309.704Z" fill="#D9D9D9"/>
<path d="M375.501 234.547C375.49 233.692 374.935 232.927 374.12 232.645L356.546 226.553C355.212 226.09 353.855 227.096 353.926 228.497C354.245 234.778 354.698 243.71 354.911 248.068C354.949 248.852 355.443 249.549 356.175 249.853L373.025 256.856C374.349 257.406 375.781 256.451 375.762 255.03L375.501 234.547Z" fill="#D9D9D9"/>
<path d="M409.174 264.868L431.455 274.02L430.756 269.418L408.476 260.266L409.174 264.868ZM404.929 258.868L384.422 250.685L385.121 255.287L405.627 263.47L404.929 258.868ZM422.263 256.087L382.797 240.062L383.495 244.665L422.961 260.689L422.263 256.087Z" fill="#8D96CA" fill-opacity="0.2"/>
<path d="M350.539 281.711V266.994C350.539 262.732 354.859 259.828 358.805 261.438L510.246 323.21C512.504 324.131 513.98 326.327 513.98 328.766V354.443C513.98 358.861 509.365 361.764 505.382 359.851L353.942 287.12C351.862 286.121 350.539 284.018 350.539 281.711Z" fill="#06D01B"/>
<path d="M422.626 311.363L442.602 320.367L442.103 315.858L422.127 306.853L422.626 311.363ZM435.104 307.047L481.094 327.192L480.595 322.682L434.607 302.551L435.104 307.047ZM418.668 305.358L383.946 290.018L384.445 294.527L419.166 309.868L418.668 305.358ZM431.159 301.042L382.797 279.621L383.295 284.13L431.657 305.551L431.159 301.042Z" fill="white"/>
<path d="M375.072 275.655C375.062 274.858 374.578 274.133 373.84 273.811L360.227 267.865C358.868 267.272 357.377 268.285 357.413 269.754C357.532 274.644 357.39 279.268 357.474 282.682C357.492 283.436 357.951 284.114 358.641 284.436L372.425 290.874C373.759 291.497 375.262 290.542 375.244 289.083L375.072 275.655Z" fill="white"/>
<path d="M359.141 242.473L362.16 245.923C362.555 246.375 363.257 246.379 363.658 245.931L372.044 236.559" stroke="black" stroke-width="2"/>
<path d="M410.249 207.158C413.388 212.123 418.251 214.681 421.11 212.873C423.969 211.065 423.742 205.575 420.602 200.61C417.463 195.646 412.6 193.088 409.741 194.896C406.882 196.704 407.109 202.194 410.249 207.158Z" fill="url(#paint2_linear_1701_3412)"/>
<path d="M424.254 173.692C421.114 168.728 416.099 166.266 413.392 167.977C412.123 168.78 410.533 170.917 409.068 172.888C407.408 175.119 405.907 177.138 405.206 176.769C404.522 176.409 406.17 177.839 404.334 173.89C402.63 170.225 400.724 166.125 399.162 163.655C395.917 158.524 391.159 156.132 388.3 157.94C385.441 159.749 385.836 165.504 388.808 170.203C390.176 172.366 392.871 175.608 395.387 178.634C398.336 182.181 397.79 180.559 397.827 181.436C397.863 182.321 395.239 182.828 392.42 183.373C390.061 183.829 387.565 184.311 386.375 185.064C383.763 186.715 383.743 192.362 386.882 197.326C390.022 202.29 395.246 204.62 397.744 203.041C398.702 202.434 399.486 200.873 400.452 198.95C402.002 195.863 404.021 191.841 407.987 189.333C411.901 186.858 416.271 186.768 419.696 186.698C421.902 186.653 423.715 186.616 424.761 185.954C427.431 184.266 427.393 178.656 424.254 173.692Z" fill="url(#paint3_linear_1701_3412)"/>
<path d="M365.456 279.906V287.353L354.84 283.781L355.088 276.492L365.456 279.906Z" fill="#3C5D8E"/>
<path d="M365.443 279.907V287.353L375.683 284.01V276.902L365.443 279.907Z" fill="#124866"/>
<path d="M375.684 276.9L365.444 279.905L354.84 276.491L365.444 274.441L375.684 276.9Z" fill="#7C9ED1"/>
<path d="M362.036 278.743V281.202L359.307 280.125V277.719L362.036 278.743Z" fill="#8496B0"/>
<path d="M371.714 275.876L362.284 278.745L359.307 277.865L368.488 275.262L371.714 275.876Z" fill="white"/>
<path d="M364.234 283.012L364.948 284.732L364.485 284.523V286.576L363.982 286.349V284.297L363.52 284.091L364.234 283.012Z" fill="#102E74"/>
<path d="M361.787 283.72L362.501 282.641L363.215 284.361L362.753 284.152V286.205L362.25 285.978V283.928L361.787 283.72Z" fill="#102E74"/>
<path d="M288.166 361.535C288.166 361.535 288.855 362.667 288.946 363.59C289.011 364.318 289.622 365.41 289.895 366.009C290.155 366.607 291.012 369.337 291.038 370.04C291.051 370.326 290.401 372.159 290.492 372.744C290.583 373.329 290.921 374.487 290.388 374.565C289.869 374.643 289.271 373.693 289.271 373.693C289.271 373.693 289.323 374.227 288.881 374.435C288.023 374.838 287.568 374.487 287.568 374.487C287.568 374.487 287.256 375.072 286.853 375.163C285.97 375.345 285.541 374.981 285.541 374.981C285.541 374.981 285.151 375.319 284.54 375.306C283.76 375.293 283.435 374.617 283.435 374.617C283.435 374.617 282.448 374.812 282.162 374.357C281.876 373.902 281.928 373.407 281.811 372.991C281.694 372.575 281.785 368.804 283.059 366.1C284.332 363.395 282.734 360.742 282.734 360.742L288.166 361.535Z" fill="#EEA886"/>
<path d="M289.429 373.325C289.429 373.325 289.52 369.944 288.623 369.229C287.739 368.514 287.635 369.723 287.635 369.723C287.635 369.723 287.752 368.514 286.79 368.358C285.816 368.188 285.777 369.632 285.777 369.632C285.777 369.632 285.621 368.709 284.594 368.891C283.58 369.086 283.814 370.269 283.814 370.269C283.814 370.269 282.84 369.112 282.203 370.217C281.137 372.103 282.164 374.326 282.164 374.326C282.164 374.326 282.463 374.833 283.437 374.586C283.437 374.586 284.087 375.899 285.543 374.95C285.543 374.95 287.024 375.769 287.57 374.456C287.57 374.469 289.208 375.249 289.429 373.325Z" fill="#DB9C7C"/>
<path d="M371.28 282.186C371.28 282.186 371.15 282.94 370.942 283.239C370.942 283.239 370.513 283.76 370.227 284.137C370.136 284.254 370.058 284.371 370.019 284.449C369.85 284.761 369.551 285.515 368.927 286.152C368.304 286.789 365.847 288.831 365.847 288.831L363.742 287.049L361.559 286.074C361.559 286.074 362.78 280.756 363.3 280.093C363.352 280.028 363.404 279.963 363.456 279.911C363.95 279.39 364.535 279.208 364.821 278.974C364.925 278.883 366.055 278.077 366.445 278.181C367.004 278.324 367.329 278.649 367.459 279.026C367.459 279.026 368.538 279.351 368.953 279.989C368.953 279.989 369.954 280.262 370.253 281.198C370.253 281.172 371.241 281.562 371.28 282.186Z" fill="#EFAA88"/>
<path d="M330.511 318.044L332.005 317.497C332.005 317.497 330.147 313.128 329.328 313.232C328.392 313.349 327.223 313.661 327.223 313.661L330.511 318.044Z" fill="#EAD8CF"/>
<path d="M330.85 318.782C330.655 318.639 327.679 312.918 327.679 312.918L321.311 313.789L324.755 320.577L330.85 318.782Z" fill="#DA9B5B"/>
<path d="M294.937 444.466C294.937 444.466 294.404 448.12 294.339 448.679C294.274 449.225 288.478 448.354 288.478 448.354L288.01 443.998C288.01 443.998 294.209 443.946 294.937 444.466Z" fill="#424773"/>
<path d="M294.407 448.221C294.407 448.221 296.239 450.432 298.02 451.381C299.8 452.343 302.582 452.72 303.634 453.721C304.388 454.437 306.39 457.531 299.021 457.466C291.652 457.401 288.091 457.908 287.298 456.712C286.505 455.529 288.442 447.961 288.442 447.961C288.442 447.961 290.196 448.598 294.407 448.221Z" fill="#292C47"/>
<path d="M336.46 444.466C336.46 444.466 335.927 448.12 335.862 448.679C335.797 449.225 330.001 448.354 330.001 448.354L329.533 443.998C329.533 443.998 335.732 443.946 336.46 444.466Z" fill="#424773"/>
<path d="M335.928 448.221C335.928 448.221 337.761 450.432 339.541 451.381C341.322 452.343 347.846 453.136 348.899 454.124C349.653 454.84 350.913 457.739 340.542 457.466C333.173 457.271 329.612 457.908 328.82 456.712C328.027 455.529 329.963 447.961 329.963 447.961C329.963 447.961 331.614 448.65 335.928 448.221Z" fill="#292C47"/>
<path d="M299.737 350.461C299.737 350.461 294.291 359.121 294.694 366.936C295.097 374.764 292.719 383.307 291.9 391.473C290.99 400.589 287.26 422.161 287.117 427.037C286.987 431.914 287.702 447.479 287.702 447.479L295.175 447.648C295.175 447.648 301.452 409.938 303.077 406.089C304.701 402.24 312.759 374.803 313.032 371.734C313.305 368.64 299.737 350.461 299.737 350.461Z" fill="black"/>
<path d="M328.404 351.627C328.404 351.627 332.511 373.07 333.044 377.868C333.59 382.653 333.941 401.04 334.214 404.031C334.487 407.021 336.748 443.106 337.463 447.644H327.91C327.91 447.644 320.58 421.351 320.58 408.907C320.58 396.463 314.914 381.86 311.262 373.642C307.61 365.437 299.241 365.242 296.992 350.002C296.992 350.015 325.363 346.79 328.404 351.627Z" fill="black"/>
<path d="M308.82 277.67C308.82 277.67 316.124 274.939 319.503 280.505C322.869 286.07 322.544 297.214 318.866 298.592C315.188 299.958 309.652 299.242 307.767 295.757C305.883 292.273 304.18 287.24 304.258 283.872C304.336 280.505 306.91 278.645 308.82 277.67Z" fill="#EEA886"/>
<path d="M318.073 298.854C318.073 298.854 317.774 300.83 318.268 301.805C318.775 302.781 308.794 302.807 308.794 302.807C308.794 302.807 307.988 297.514 306.454 293.041C304.921 288.568 318.073 298.854 318.073 298.854Z" fill="#EEA886"/>
<path d="M307.104 296.474C307.104 296.474 308.742 295.966 311.562 295.524C314.369 295.082 316.201 289.556 317.371 289.14C318.541 288.724 318.554 288.034 318.554 288.034L319.295 289.114L320.542 289.192C320.542 289.192 318.957 284.81 321.114 284.484C327.56 283.483 319.866 271.832 310.847 274.979C310.236 275.2 303.725 276.253 301.048 283.496C300.216 285.733 297.877 298.138 307.104 296.474Z" fill="#040100"/>
<path d="M318.863 301.68C318.863 301.68 318.837 299.82 317.992 299.638C317.147 299.456 308.7 298.65 307.66 299.053V301.211C307.66 301.224 309.649 302.447 318.863 301.68Z" fill="#E2D2CA"/>
<path d="M318.356 286.614C318.2 285.951 316.523 284.065 315.874 286.081C315.237 288.096 316.848 290.814 317.745 290.593C318.655 290.359 318.759 288.278 318.356 286.614Z" fill="#EEA886"/>
<path d="M352.396 323.629H352.383C352.448 323.655 352.448 323.655 352.396 323.629Z" fill="#323657"/>
<path d="M299.63 312.876C299.63 312.876 293.847 332.147 291.897 339.26C291.286 341.484 289.805 362.783 289.545 363.641C289.285 364.5 281.955 365.67 281.955 365.67C281.955 365.67 282.839 339.026 282.93 337.583C283.008 336.126 291.013 306.388 293.353 305.322C295.094 304.528 296.017 305.179 298.213 306.817C301.281 309.106 299.63 312.876 299.63 312.876Z" fill="url(#paint4_linear_1701_3412)"/>
<path d="M299.63 312.876C299.63 312.876 293.847 332.147 291.897 339.26C291.286 341.484 289.805 362.783 289.545 363.641C289.285 364.5 281.955 365.67 281.955 365.67C281.955 365.67 282.839 339.026 282.93 337.583C283.008 336.126 291.013 306.388 293.353 305.322C295.094 304.528 296.017 305.179 298.213 306.817C301.281 309.106 299.63 312.876 299.63 312.876Z" fill="url(#paint5_linear_1701_3412)"/>
<path d="M332.836 304.488C327.04 303.721 318.865 301.679 318.865 301.679L307.662 301.224C307.662 301.224 297.382 303.487 293.34 305.32C292.95 305.489 292.95 314.5 291.898 316.854L295.251 323.941C295.251 323.941 297.187 337.971 297.59 344.213C297.772 347.074 293.587 371.078 293.587 371.078C293.587 371.078 298.071 372.404 305.713 373.236C313.354 374.082 332.459 372.937 332.576 372.027C332.693 371.117 328.872 338.387 328.703 336.697C328.443 334.096 329.6 320.274 329.6 320.274C331.367 318.909 346.859 311.705 351.083 307.96C352.213 306.958 356.983 302.303 358.348 300.704C363.156 295.021 367.094 290.132 367.575 289.092C368.121 288.494 362.35 285.36 361.831 285.178C361.376 285.022 354.878 293.448 352.369 296.153C351.252 297.362 346.625 300.73 346.625 300.73C346.625 300.73 336.462 304.696 332.836 304.488Z" fill="url(#paint6_linear_1701_3412)"/>
<path d="M332.836 304.488C327.04 303.721 318.865 301.679 318.865 301.679L307.662 301.224C307.662 301.224 297.382 303.487 293.34 305.32C292.95 305.489 292.95 314.5 291.898 316.854L295.251 323.941C295.251 323.941 297.187 337.971 297.59 344.213C297.772 347.074 293.587 371.078 293.587 371.078C293.587 371.078 298.071 372.404 305.713 373.236C313.354 374.082 332.459 372.937 332.576 372.027C332.693 371.117 328.872 338.387 328.703 336.697C328.443 334.096 329.6 320.274 329.6 320.274C331.367 318.909 346.859 311.705 351.083 307.96C352.213 306.958 356.983 302.303 358.348 300.704C363.156 295.021 367.094 290.132 367.575 289.092C368.121 288.494 362.35 285.36 361.831 285.178C361.376 285.022 354.878 293.448 352.369 296.153C351.252 297.362 346.625 300.73 346.625 300.73C346.625 300.73 336.462 304.696 332.836 304.488Z" fill="url(#paint7_linear_1701_3412)"/>
<path d="M600.796 290.508C600.262 290.067 599.771 289.583 599.297 289.079C598.905 288.386 598.439 287.854 598.22 287.613C598.057 287.433 597.635 286.401 597.547 285.938C597.315 284.726 596.695 284.836 596.516 285.536C596.359 286.148 596.35 286.789 596.46 287.412C596.523 287.773 596.834 288.452 597.099 289.006C596.544 288.994 596.143 288.982 596.143 288.982L594.64 289.128C594.34 289.157 594.06 289.294 593.855 289.512C593.573 289.811 593.475 290.237 593.601 290.627C593.647 290.767 593.926 291.383 594.043 291.56C594.516 292.28 595.528 292.262 595.528 292.262C595.882 292.249 596.177 292.217 596.425 292.174L598.707 295.195L600.588 295.472L601.857 291.309C601.536 291.1 601.173 290.82 600.796 290.508Z" fill="#FFC0BB"/>
<path d="M594.38 292.824C594.262 292.646 593.983 292.031 593.937 291.891C593.811 291.502 593.909 291.075 594.191 290.777L594.512 290.438L595.054 291.316C595.409 292.019 595.368 291.978 596.526 291.872C598.178 291.719 598.027 292.739 598.027 292.739C598.027 292.739 597.946 293.449 595.865 293.527C595.864 293.526 594.853 293.544 594.38 292.824Z" fill="#FFC0BB"/>
<path d="M594.678 293.671C594.566 293.501 594.3 292.916 594.257 292.783C594.136 292.412 594.23 292.005 594.498 291.721L594.803 291.398L595.319 292.235C595.657 292.905 595.618 292.867 596.721 292.764C598.294 292.619 598.151 293.59 598.151 293.59C598.151 293.59 598.074 294.266 596.092 294.34C596.091 294.34 595.128 294.357 594.678 293.671Z" fill="#FFC0BB"/>
<path d="M595.459 294.583C595.364 294.44 595.14 293.944 595.102 293.831C595.001 293.517 595.08 293.174 595.306 292.933L595.564 292.66L596.001 293.367C596.286 293.934 596.254 293.902 597.187 293.816C598.517 293.692 598.396 294.515 598.396 294.515C598.396 294.515 598.33 295.086 596.653 295.149C596.654 295.148 595.84 295.163 595.459 294.583Z" fill="#FFC0BB"/>
<path d="M594.718 290.051C594.789 290.21 594.849 290.373 594.955 290.52C595.009 290.592 595.089 290.653 595.18 290.679C595.27 290.707 595.361 290.713 595.45 290.715C595.803 290.715 596.153 290.667 596.49 290.67C596.66 290.678 596.828 290.691 596.986 290.734C597.146 290.77 597.292 290.845 597.401 290.949C597.512 291.053 597.577 291.196 597.592 291.347C597.596 291.384 597.596 291.424 597.593 291.457C597.592 291.472 597.576 291.509 597.56 291.537C597.525 291.598 597.468 291.651 597.408 291.7C597.158 291.896 596.822 291.994 596.492 292.065C596.161 292.134 595.81 292.162 595.477 292.183C595.142 292.175 594.8 292.099 594.507 291.933C594.359 291.851 594.226 291.744 594.118 291.612C594.059 291.55 594.023 291.47 593.977 291.397L593.842 291.174C593.918 291.329 593.974 291.498 594.074 291.644C594.174 291.79 594.305 291.917 594.454 292.018C594.757 292.213 595.111 292.311 595.47 292.339C595.832 292.341 596.177 292.313 596.53 292.253C596.704 292.219 596.879 292.177 597.049 292.115C597.219 292.057 597.387 291.975 597.537 291.858C597.61 291.795 597.682 291.728 597.735 291.638C597.759 291.59 597.784 291.548 597.794 291.477C597.799 291.424 597.797 291.376 597.792 291.326C597.771 291.133 597.684 290.94 597.535 290.809C597.39 290.677 597.209 290.597 597.03 290.56C596.941 290.532 596.85 290.531 596.76 290.518C596.67 290.513 596.581 290.515 596.491 290.513C596.133 290.529 595.792 290.595 595.45 290.615C595.28 290.629 595.108 290.616 594.998 290.484C594.888 290.357 594.808 290.199 594.718 290.051Z" fill="#F99893"/>
<path d="M597.28 291.896C597.407 291.937 597.532 291.983 597.641 292.055C597.749 292.128 597.838 292.223 597.893 292.334C597.948 292.444 597.975 292.569 597.968 292.69C597.965 292.79 597.874 292.89 597.782 292.965C597.585 293.112 597.341 293.208 597.09 293.268C596.837 293.329 596.579 293.372 596.316 293.393C596.185 293.41 596.053 293.413 595.922 293.423C595.799 293.434 595.67 293.417 595.543 293.399C595.29 293.361 595.042 293.279 594.825 293.151C594.714 293.088 594.62 293.004 594.53 292.914C594.491 292.864 594.447 292.819 594.413 292.763L594.312 292.595C594.186 292.365 594.071 292.126 593.939 291.891C594.028 292.141 594.124 292.39 594.224 292.641C594.283 292.763 594.343 292.886 594.432 292.997C594.522 293.102 594.623 293.203 594.739 293.281C594.969 293.445 595.24 293.535 595.511 293.589C595.648 293.613 595.786 293.63 595.929 293.621C596.064 293.612 596.201 293.612 596.336 293.595C596.605 293.569 596.875 293.524 597.139 293.453C597.401 293.377 597.668 293.274 597.884 293.083C597.936 293.033 597.987 292.98 598.026 292.915C598.047 292.884 598.064 292.85 598.077 292.813C598.093 292.777 598.099 292.725 598.096 292.693C598.094 292.548 598.054 292.406 597.98 292.284C597.82 292.04 597.541 291.926 597.28 291.896Z" fill="#F99893"/>
<path d="M597.902 292.988C598.036 293.127 598.109 293.309 598.103 293.489C598.117 293.659 597.956 293.783 597.81 293.875C597.654 293.964 597.481 294.03 597.3 294.074C597.122 294.123 596.937 294.155 596.75 294.18C596.563 294.205 596.375 294.224 596.187 294.235C596.006 294.258 595.821 294.232 595.639 294.2C595.279 294.129 594.923 293.971 594.678 293.669C594.764 293.842 594.904 293.988 595.063 294.106C595.226 294.22 595.411 294.301 595.602 294.354C595.793 294.408 595.994 294.439 596.195 294.428C596.389 294.423 596.584 294.405 596.778 294.382C597.161 294.322 597.558 294.238 597.897 294.008C597.978 293.945 598.06 293.881 598.121 293.792C598.151 293.748 598.178 293.702 598.194 293.647C598.215 293.587 598.207 293.533 598.203 293.484C598.176 293.281 598.067 293.091 597.902 292.988Z" fill="#F99893"/>
<path d="M597.95 293.887C598.105 293.965 598.243 294.078 598.297 294.231C598.327 294.305 598.34 294.384 598.337 294.461C598.336 294.48 598.334 294.499 598.332 294.516C598.329 294.522 598.322 294.541 598.314 294.554C598.297 294.584 598.273 294.613 598.247 294.64C598.138 294.745 597.989 294.819 597.833 294.872C597.677 294.926 597.513 294.965 597.346 294.991C597.18 295.021 597.009 295.04 596.84 295.053C596.755 295.058 596.669 295.074 596.591 295.068C596.509 295.065 596.426 295.058 596.344 295.046C596.018 294.993 595.689 294.865 595.463 294.595C595.621 294.912 595.964 295.12 596.312 295.201C596.401 295.224 596.49 295.239 596.581 295.246C596.677 295.256 596.764 295.245 596.853 295.244C597.029 295.237 597.205 295.22 597.381 295.191C597.557 295.16 597.731 295.118 597.902 295.052C598.069 294.983 598.239 294.897 598.367 294.746C598.398 294.707 598.426 294.666 598.447 294.618C598.457 294.594 598.466 294.571 598.472 294.535C598.474 294.508 598.473 294.484 598.471 294.459C598.462 294.364 598.436 294.27 598.388 294.189C598.289 294.022 598.121 293.923 597.95 293.887Z" fill="#F99893"/>
<path d="M601.856 291.309L615.348 295.472L619.574 286.059L626.006 292.66C626.006 292.66 619.466 302.859 618.038 303.375C616.611 303.893 600.586 295.472 600.586 295.472C600.586 295.472 599.393 291.304 599.652 291.399C599.913 291.494 601.856 291.309 601.856 291.309Z" fill="#FFC0BB"/>
<path d="M650.498 381.378L650.408 384.576L646.494 387.405C646.494 387.405 644.644 384.92 644.681 384.576C644.718 384.232 644.68 378.699 644.68 378.699C644.68 378.699 649.157 380.396 649.343 380.396C649.528 380.396 650.498 381.378 650.498 381.378Z" fill="#FFC0BB"/>
<path d="M631.361 384.576V380.617L626.818 379.363L625.807 379.805L625.635 384.576L627.065 388.732L631.361 384.576Z" fill="#FFC0BB"/>
<path d="M637.797 323.788L643.537 381.913C645.789 381.816 648.126 381.645 650.498 381.376C650.767 370.226 651.53 336.901 651.416 323.527C651.276 307.348 646.41 304.98 646.41 304.98L638.122 302.824L626.82 304.825C630.338 318.471 637.797 323.788 637.797 323.788Z" fill="#010101"/>
<path d="M624.785 381.236C626.487 381.432 628.843 381.66 631.657 381.82L637.678 314.631L638.308 303.94C638.308 303.94 629.061 299.508 626.004 304.772C622.946 310.036 623.039 317.886 623.039 317.886C623.039 317.886 623.428 367.385 624.785 381.236Z" fill="black"/>
<path d="M626.757 270.648C626.757 270.648 625.092 271.139 622.682 274.832C620.274 278.526 618.129 288.741 618.129 288.741L625.818 293.945L630.821 281.606L626.757 270.648Z" fill="#FE4646"/>
<path d="M639.517 264.936L640.283 271.128L634.125 270.918L634.303 263.832L639.517 264.936Z" fill="#FFC0BB"/>
<path opacity="0.6" d="M634.219 267.095L634.3 263.832L639.59 265.523L639.739 266.746C638.566 267.184 636.335 267.715 634.219 267.095Z" fill="#FC8D84"/>
<path d="M629.332 253.32L629.474 257.615L630.2 257.958L630.83 252.633L629.332 253.32Z" fill="#07085B"/>
<path d="M630.696 257.024C630.996 257.965 630.627 258.922 629.87 259.162C629.114 259.402 628.257 258.833 627.956 257.892C627.656 256.951 628.025 255.994 628.782 255.754C629.539 255.515 630.396 256.083 630.696 257.024Z" fill="#F99893"/>
<path d="M630.058 261.087C629.713 259.879 629.591 258.617 629.572 257.523C629.568 257.288 629.55 257.054 629.528 256.82C629.439 255.876 629.521 254.889 629.822 253.891C630.789 250.68 633.819 248.442 637.187 248.457C641.724 248.479 645.17 252.316 644.821 256.698C645.32 256.471 645.862 256.451 646.319 256.7C647.195 257.175 647.421 258.443 646.824 259.534C646.227 260.624 645.034 261.122 644.157 260.647C644.036 260.58 643.928 260.499 643.832 260.404C643.153 264.103 639.854 266.74 636.178 266.389C633.377 266.123 630.868 264.128 630.058 261.087Z" fill="#FFC0BB"/>
<path d="M637.896 256.818C637.86 257.184 638.13 257.51 638.498 257.545C638.866 257.58 639.194 257.311 639.229 256.944C639.265 256.578 638.995 256.252 638.627 256.218C638.258 256.183 637.931 256.452 637.896 256.818Z" fill="#333333"/>
<path d="M632.132 256.647C632.097 257.013 632.367 257.338 632.734 257.373C633.103 257.409 633.43 257.14 633.466 256.773C633.501 256.407 633.231 256.081 632.863 256.046C632.494 256.013 632.167 256.281 632.132 256.647Z" fill="#333333"/>
<path d="M637.219 255.426C637.558 255.324 637.88 255.245 638.2 255.203C638.519 255.159 638.834 255.157 639.138 255.202C639.44 255.251 639.745 255.325 640.031 255.468L640.143 255.514C640.181 255.531 640.213 255.555 640.25 255.572L640.47 255.689C640.617 255.771 640.752 255.871 640.915 255.952C640.832 255.799 640.735 255.647 640.623 255.508C640.497 255.384 640.382 255.237 640.227 255.141C639.939 254.914 639.574 254.779 639.206 254.723C638.834 254.668 638.452 254.71 638.108 254.835C637.767 254.963 637.45 255.154 637.219 255.426Z" fill="#07085B"/>
<path d="M634.522 255.305C634.316 255.013 634.018 254.795 633.689 254.637C633.357 254.484 632.98 254.408 632.605 254.429C632.233 254.452 631.858 254.555 631.55 254.755C631.386 254.838 631.258 254.974 631.121 255.087C630.997 255.215 630.888 255.358 630.791 255.504C630.961 255.437 631.105 255.348 631.258 255.281L631.487 255.184C631.525 255.169 631.561 255.149 631.599 255.135L631.714 255.099C632.013 254.982 632.323 254.934 632.628 254.913C632.936 254.895 633.247 254.924 633.562 254.996C633.879 255.067 634.192 255.172 634.522 255.305Z" fill="#07085B"/>
<path d="M629.044 248.196C629.044 248.196 626.749 248.033 629.351 246.356C631.954 244.68 638.636 243.091 642.539 245.691C642.539 245.691 643.548 244.028 644.699 244.569C645.849 245.111 643.752 246.109 643.752 246.109C643.752 246.109 645.282 246.218 645.669 247.011C645.955 247.597 645.019 247.524 644.511 247.447C645.364 247.684 648.023 249.647 645.65 256.153C645.071 255.962 640.915 251.34 640.915 251.34C640.915 251.34 634.052 254.522 635.123 252.431C635.123 252.431 627.048 255.503 628.617 251.507C628.618 251.507 625.494 251.412 629.044 248.196Z" fill="#995133"/>
<path d="M635.57 255.293C635.672 255.764 635.696 256.244 635.663 256.728C635.646 256.97 635.61 257.213 635.545 257.456C635.316 258.26 635.076 258.212 634.951 258.415C634.893 258.48 634.853 258.553 634.832 258.632C634.778 258.788 634.833 258.973 634.93 259.144C635.144 259.489 635.568 259.717 636.02 259.869C635.546 259.902 635.004 259.777 634.642 259.356C634.464 259.152 634.346 258.847 634.407 258.54C634.44 258.373 634.498 258.268 634.6 258.131C634.737 257.928 634.893 257.99 635.131 257.332C635.21 257.126 635.253 256.901 635.31 256.678C635.406 256.228 635.482 255.765 635.57 255.293Z" fill="#F99893"/>
<path d="M640.916 251.34C640.916 251.34 642.905 255.887 642.585 258.346C642.585 258.346 644.036 256.322 645.876 256.548C645.876 256.548 647.11 252.514 646.391 249.762L642.117 250.009L640.916 251.34Z" fill="#995133"/>
<path d="M633.5 260.795C633.724 261.611 634.705 262.215 635.87 262.194C637.034 262.173 637.993 261.535 638.188 260.711L633.5 260.795Z" fill="white"/>
<path d="M618.445 287.745L626.044 292.775C626.305 292.948 626.402 293.274 626.275 293.553L625.178 295.975C625.013 296.34 624.543 296.47 624.203 296.245L616.498 291.167C616.228 290.989 616.134 290.646 616.278 290.362L617.481 287.989C617.656 287.64 618.112 287.525 618.445 287.745Z" fill="#CE1E1E"/>
<path d="M646.935 269.682C645.406 268.783 642.379 268.222 640.597 267.922C639.519 268.834 634.573 268.604 633.501 268.129C631.028 269.06 625.429 270.502 625.372 272.009C624.149 304.551 626.006 304.855 626.006 304.855C629.434 306.366 643.978 305.527 646.294 304.855C648.611 304.183 650.371 288.572 650.371 288.572L657.412 295.202C659.846 292.893 664.683 289.804 664.683 289.804C664.683 289.804 654.174 273.937 646.935 269.682Z" fill="#FE4646"/>
<path d="M642.738 275.688C643.043 276.233 643.339 276.784 643.646 277.328L644.557 278.964C644.864 279.508 645.166 280.055 645.477 280.595C645.783 281.139 646.096 281.679 646.409 282.219C646.723 282.757 647.035 283.298 647.359 283.831C647.52 284.098 647.675 284.369 647.841 284.633L648.329 285.431L648.827 286.224C648.91 286.356 648.991 286.489 649.076 286.62L649.332 287.011L649.586 287.405L649.713 287.602L649.844 287.795C650.021 288.053 650.196 288.312 650.368 288.573C649.584 287.599 648.856 286.579 648.165 285.535C647.476 284.49 646.825 283.421 646.194 282.342C645.568 281.259 644.964 280.163 644.387 279.055C643.807 277.948 643.254 276.826 642.738 275.688Z" fill="white"/>
<path opacity="0.5" d="M627.658 307.677C628.331 307.798 629.007 307.897 629.685 307.986C630.362 308.077 631.04 308.156 631.72 308.222C633.08 308.357 634.444 308.447 635.81 308.476C636.493 308.49 637.176 308.491 637.859 308.475C638.542 308.455 639.224 308.417 639.904 308.361C640.585 308.3 641.263 308.22 641.937 308.108C642.61 307.996 643.28 307.855 643.939 307.676C643.283 307.867 642.616 308.021 641.944 308.148C641.27 308.268 640.591 308.355 639.911 308.424C639.229 308.49 638.546 308.525 637.862 308.55C637.177 308.57 636.493 308.571 635.808 308.558C634.44 308.522 633.074 308.433 631.714 308.285C631.034 308.211 630.355 308.125 629.679 308.026C629.003 307.924 628.328 307.811 627.658 307.677Z" fill="#DAEEF7"/>
<path d="M642.721 309.777C642.749 309.859 642.791 309.935 642.83 310.012L642.948 310.243L643.187 310.704L643.586 311.466L644.722 313.493C644.879 313.801 646.37 316.467 646.724 317.063C646.284 316.525 645.756 315.992 645.397 315.398C645.216 315.102 645.049 314.799 644.879 314.497C644.712 314.193 644.551 313.886 644.39 313.579C644.075 312.962 643.771 312.34 643.488 311.708C643.345 311.393 643.209 311.075 643.077 310.755C643.013 310.594 642.947 310.434 642.886 310.271C642.826 310.109 642.76 309.947 642.721 309.777Z" fill="#DAEEF7"/>
<path d="M637.157 390.405L651.133 390.411C651.467 390.411 651.739 390.141 651.739 389.808V389.493C651.739 389.16 651.468 388.889 651.133 388.889L637.157 388.883C636.823 388.883 636.551 389.153 636.551 389.486V389.801C636.552 390.135 636.823 390.405 637.157 390.405Z" fill="#333333"/>
<path d="M651.047 384.257L651.548 388.495C651.611 389.017 651.317 389.492 650.931 389.492L637.548 389.485C637.2 389.485 636.857 389.269 636.674 388.862C636.487 388.445 636.45 387.817 637.049 386.973C638.226 385.315 642.044 384.889 644.006 383.51C644.077 383.461 644.159 383.434 644.245 383.434L650.347 383.436C650.695 383.438 650.991 383.785 651.047 384.257Z" fill="#732B2B"/>
<path d="M645.055 385.89C645.152 385.831 645.187 385.669 645.131 385.545C644.868 384.964 644.048 383.55 642.377 383.839C642.28 383.856 642.214 383.984 642.231 384.116V384.12C642.247 384.247 642.334 384.331 642.427 384.316C643.925 384.061 644.623 385.307 644.835 385.794C644.882 385.899 644.975 385.94 645.055 385.89Z" fill="#333333"/>
<path d="M643.668 386.436C643.765 386.377 643.8 386.215 643.744 386.092C643.481 385.511 642.661 384.096 640.99 384.386C640.893 384.403 640.828 384.531 640.844 384.663L640.845 384.667C640.861 384.794 640.948 384.878 641.042 384.863C642.539 384.608 643.237 385.855 643.45 386.341C643.494 386.446 643.587 386.486 643.668 386.436Z" fill="#333333"/>
<path d="M642.375 386.948C642.472 386.889 642.507 386.726 642.451 386.603C642.188 386.022 641.368 384.609 639.697 384.898C639.6 384.914 639.535 385.043 639.551 385.174V385.178C639.567 385.306 639.654 385.39 639.748 385.374C641.245 385.119 641.943 386.366 642.155 386.853C642.201 386.957 642.294 386.998 642.375 386.948Z" fill="#333333"/>
<path opacity="0.3" d="M647.55 388.928C648.487 386.393 649.88 385.82 650.84 385.766C651.057 385.754 651.244 385.917 651.269 386.133L651.549 388.497C651.611 389.019 651.317 389.494 650.932 389.494L647.938 389.493C647.648 389.492 647.449 389.201 647.55 388.928Z" fill="#E87B50"/>
<path d="M618.108 390.268L632.084 390.401C632.418 390.404 632.692 390.136 632.695 389.803L632.699 389.488C632.702 389.155 632.433 388.882 632.098 388.879L618.123 388.746C617.788 388.743 617.514 389.011 617.511 389.344L617.508 389.659C617.505 389.992 617.774 390.265 618.108 390.268Z" fill="#333333"/>
<path d="M632.051 384.251L632.514 388.493C632.571 389.016 632.273 389.488 631.888 389.484L618.504 389.357C618.156 389.354 617.814 389.134 617.636 388.725C617.453 388.307 617.421 387.679 618.028 386.84C619.221 385.193 623.042 384.802 625.016 383.442C625.087 383.393 625.17 383.366 625.255 383.367L631.357 383.425C631.706 383.428 632 383.778 632.051 384.251Z" fill="#732B2B"/>
<path d="M626.047 385.836C626.144 385.778 626.181 385.616 626.126 385.491C625.868 384.909 625.061 383.487 623.387 383.761C623.29 383.777 623.224 383.904 623.238 384.037V384.041C623.253 384.168 623.339 384.253 623.433 384.238C624.932 383.997 625.619 385.249 625.827 385.738C625.873 385.843 625.966 385.885 626.047 385.836Z" fill="#333333"/>
<path d="M624.652 386.367C624.75 386.31 624.786 386.147 624.732 386.023C624.475 385.44 623.667 384.018 621.992 384.293C621.896 384.308 621.829 384.435 621.844 384.568V384.572C621.858 384.699 621.945 384.784 622.038 384.77C623.538 384.53 624.224 385.781 624.433 386.27C624.478 386.375 624.571 386.416 624.652 386.367Z" fill="#333333"/>
<path d="M623.354 386.867C623.452 386.808 623.488 386.647 623.434 386.523C623.177 385.94 622.369 384.518 620.695 384.793C620.599 384.808 620.532 384.935 620.547 385.068L620.548 385.072C620.562 385.199 620.649 385.284 620.742 385.269C622.243 385.029 622.928 386.28 623.136 386.769C623.181 386.875 623.274 386.916 623.354 386.867Z" fill="#333333"/>
<path opacity="0.3" d="M628.512 388.891C629.473 386.364 630.87 385.804 631.83 385.758C632.048 385.748 632.232 385.914 632.256 386.129L632.515 388.495C632.572 389.018 632.274 389.49 631.889 389.486L628.895 389.458C628.605 389.456 628.409 389.163 628.512 388.891Z" fill="#E87B50"/>
<path d="M658.468 317.065L659.533 320.202C659.007 321.442 658.785 321.593 658.65 322.433C658.481 323.307 655.907 323.088 655.806 322.551C654.155 320.488 654.476 317.276 655.09 315.848C656.85 315.83 658.468 317.065 658.468 317.065Z" fill="#FFC0BB"/>
<path d="M650.588 303.36V322.371L628.219 313.253L628.742 294.645L650.588 303.36Z" fill="#3C5D8E"/>
<path d="M650.562 303.365V322.375L672.139 313.841V295.695L650.562 303.365Z" fill="#124866"/>
<path d="M672.139 295.692L650.563 303.361L628.219 294.645L650.563 289.414L672.139 295.692Z" fill="#7C9ED1"/>
<path d="M643.38 300.401V306.679L637.629 303.929V297.785L643.38 300.401Z" fill="#8496B0"/>
<path d="M663.772 293.073L643.903 300.397L637.629 298.149L656.975 291.504L663.772 293.073Z" fill="white"/>
<path d="M648.016 311.285L649.521 315.677L648.546 315.144V320.384L647.487 319.805V314.566L646.512 314.04L648.016 311.285Z" fill="#102E74"/>
<path d="M642.859 313.094L644.364 310.34L645.869 314.731L644.894 314.199V319.438L643.835 318.86V313.627L642.859 313.094Z" fill="#102E74"/>
<path d="M662.893 287.68C662.893 287.68 664.766 289.986 665.055 291.134C665.344 292.282 658.801 314.64 658.801 314.64C658.801 314.64 660.653 318.164 659.53 320.2L654.672 317.822L658.297 294.225L656.942 291.927L662.893 287.68Z" fill="#FFC0BB"/>
<path d="M654.836 292.476L662.21 286.763C662.558 286.493 663.061 286.561 663.324 286.913L665.047 289.214C665.304 289.557 665.235 290.041 664.893 290.3L657.636 295.799C657.306 296.049 656.839 296.002 656.567 295.693L654.727 293.603C654.431 293.267 654.48 292.751 654.836 292.476Z" fill="#CE1E1E"/>
<path d="M640.322 267.742L637.096 270.968L636.559 271.506L638.709 273.119L641.397 267.742H640.322Z" fill="#CE1E1E"/>
<path d="M636.558 271.505L633.87 267.741C633.563 267.311 633.025 267.562 632.795 267.741L634.408 273.118L636.558 271.505Z" fill="#CE1E1E"/>
<path d="M636.56 272.043L635.484 292.473" stroke="#CE1E1E" stroke-width="0.5"/>
<path d="M634.838 153.691H495.699L512.36 141.364V81.1453C512.36 76.126 516.428 72.043 521.458 72.043H634.838C639.854 72.043 643.935 76.113 643.935 81.1453V144.588C643.922 149.621 639.854 153.691 634.838 153.691Z" fill="#0C55B3"/>
<rect x="523.656" y="84.9453" width="39.7849" height="45.1613" rx="3" fill="#181F98" fill-opacity="0.51"/>
<path opacity="0.45" d="M631.833 83.7969H568.242V89.8824H631.833V83.7969Z" fill="#21277C"/>
<path opacity="0.45" d="M631.833 92.8867H568.242V98.9723H631.833V92.8867Z" fill="#21277C"/>
<path opacity="0.45" d="M631.833 101.984H568.242V108.07H631.833V101.984Z" fill="#21277C"/>
<path opacity="0.45" d="M631.833 110.848H568.242V116.933H631.833V110.848Z" fill="#21277C"/>
<path opacity="0.45" d="M612.586 121.441H568.242V127.527H612.586V121.441Z" fill="#21277C"/>
<path opacity="0.45" d="M563.254 136.34H523.316V141.359H563.254V136.34Z" fill="#282D38"/>
<path d="M547.233 114.117H532.742C531.923 114.117 531.209 113.571 531.001 112.777L528.206 102.479C527.895 101.334 528.765 100.203 529.948 100.203H550.014C551.21 100.203 552.068 101.334 551.756 102.479L548.962 112.777C548.754 113.571 548.039 114.117 547.233 114.117Z" fill="#558DD6"/>
<path d="M549.781 116.43H532.327C532.132 116.43 531.963 116.274 531.963 116.066C531.963 115.871 532.119 115.702 532.327 115.702H549.508L555.577 94.5062C555.616 94.3501 555.759 94.2461 555.928 94.2461H559.723C559.918 94.2461 560.087 94.4021 560.087 94.6102C560.087 94.8052 559.931 94.9743 559.723 94.9743H556.201L550.132 116.17C550.08 116.326 549.937 116.43 549.781 116.43Z" fill="#558DD6"/>
<path d="M534.992 119.282C534.992 120.453 534.043 121.389 532.887 121.389C531.73 121.389 530.781 120.44 530.781 119.282C530.781 118.112 531.73 117.176 532.887 117.176C534.043 117.176 534.992 118.112 534.992 119.282Z" fill="#558DD6"/>
<path d="M548.236 121.389C549.399 121.389 550.342 120.446 550.342 119.282C550.342 118.119 549.399 117.176 548.236 117.176C547.073 117.176 546.131 118.119 546.131 119.282C546.131 120.446 547.073 121.389 548.236 121.389Z" fill="#558DD6"/>
<path d="M593.745 235.895H546.902C544.208 235.895 542.025 238.077 542.025 240.771V264.548C542.025 267.242 544.208 269.425 546.902 269.425H571.886C572.043 269.425 572.201 269.457 572.347 269.515L587.001 275.526C588.407 276.102 589.944 275.07 589.944 273.551V270.643C589.944 269.971 590.49 269.425 591.162 269.425H593.742C596.437 269.425 598.619 267.242 598.619 264.548V240.771C598.625 238.077 596.439 235.895 593.745 235.895Z" fill="#2A76D7"/>
<path d="M592.435 253.861H548.216C547.769 253.861 547.406 253.499 547.406 253.052C547.406 252.605 547.769 252.242 548.216 252.242H592.435C592.882 252.242 593.244 252.605 593.244 253.052C593.244 253.499 592.882 253.861 592.435 253.861Z" fill="#62A0E9"/>
<path d="M592.435 258.951H548.216C547.769 258.951 547.406 258.589 547.406 258.141C547.406 257.694 547.769 257.332 548.216 257.332H592.435C592.882 257.332 593.244 257.694 593.244 258.141C593.244 258.589 592.882 258.951 592.435 258.951Z" fill="#62A0E9"/>
<path d="M592.435 264.045H548.216C547.769 264.045 547.406 263.682 547.406 263.235C547.406 262.788 547.769 262.426 548.216 262.426H592.435C592.882 262.426 593.244 262.788 593.244 263.235C593.244 263.682 592.882 264.045 592.435 264.045Z" fill="#62A0E9"/>
<path d="M550.555 246.709L548.995 247.53C548.77 247.647 548.507 247.457 548.551 247.206L548.849 245.467C548.866 245.368 548.834 245.265 548.761 245.195L547.499 243.965C547.318 243.787 547.417 243.477 547.668 243.442L549.413 243.188C549.512 243.173 549.6 243.112 549.644 243.021L550.424 241.44C550.538 241.213 550.862 241.213 550.973 241.44L551.753 243.021C551.797 243.112 551.885 243.173 551.984 243.188L553.729 243.442C553.98 243.48 554.082 243.787 553.898 243.965L552.636 245.195C552.563 245.265 552.531 245.368 552.548 245.467L552.846 247.206C552.89 247.457 552.627 247.647 552.402 247.53L550.842 246.709C550.751 246.662 550.646 246.662 550.555 246.709Z" fill="#EFC04D"/>
<path d="M560.366 246.709L558.806 247.53C558.581 247.647 558.318 247.457 558.361 247.206L558.659 245.467C558.677 245.368 558.645 245.265 558.572 245.195L557.309 243.965C557.128 243.787 557.228 243.477 557.479 243.442L559.223 243.188C559.323 243.173 559.41 243.112 559.454 243.021L560.234 241.44C560.348 241.213 560.673 241.213 560.784 241.44L561.564 243.021C561.608 243.112 561.695 243.173 561.795 243.188L563.539 243.442C563.791 243.48 563.893 243.787 563.709 243.965L562.446 245.195C562.373 245.265 562.341 245.368 562.359 245.467L562.657 247.206C562.701 247.457 562.438 247.647 562.213 247.53L560.652 246.709C560.562 246.662 560.456 246.662 560.366 246.709Z" fill="#EFC04D"/>
<path d="M570.182 246.709L568.622 247.53C568.397 247.647 568.134 247.457 568.178 247.206L568.476 245.467C568.493 245.368 568.461 245.265 568.388 245.195L567.126 243.965C566.945 243.787 567.044 243.477 567.295 243.442L569.04 243.188C569.139 243.173 569.227 243.112 569.271 243.021L570.051 241.44C570.165 241.213 570.489 241.213 570.6 241.44L571.38 243.021C571.424 243.112 571.512 243.173 571.611 243.188L573.356 243.442C573.607 243.48 573.709 243.787 573.525 243.965L572.263 245.195C572.19 245.265 572.158 245.368 572.175 245.467L572.473 247.206C572.517 247.457 572.254 247.647 572.029 247.53L570.469 246.709C570.378 246.662 570.27 246.662 570.182 246.709Z" fill="#EFC04D"/>
<path d="M579.989 246.709L578.429 247.53C578.204 247.647 577.941 247.457 577.984 247.206L578.282 245.467C578.3 245.368 578.268 245.265 578.195 245.195L576.932 243.965C576.751 243.787 576.851 243.477 577.102 243.442L578.846 243.188C578.946 243.173 579.033 243.112 579.077 243.021L579.857 241.44C579.971 241.213 580.296 241.213 580.407 241.44L581.187 243.021C581.231 243.112 581.318 243.173 581.418 243.188L583.162 243.442C583.414 243.48 583.516 243.787 583.332 243.965L582.069 245.195C581.996 245.265 581.964 245.368 581.982 245.467L582.28 247.206C582.324 247.457 582.061 247.647 581.836 247.53L580.275 246.709C580.188 246.662 580.08 246.662 579.989 246.709Z" fill="#EFC04D"/>
<path d="M589.799 246.709L588.239 247.53C588.014 247.647 587.751 247.457 587.795 247.206L588.093 245.467C588.111 245.368 588.078 245.265 588.005 245.195L586.743 243.965C586.562 243.787 586.661 243.477 586.913 243.442L588.657 243.188C588.756 243.173 588.844 243.112 588.888 243.021L589.668 241.44C589.782 241.213 590.106 241.213 590.217 241.44L590.998 243.021C591.041 243.112 591.129 243.173 591.228 243.188L592.973 243.442C593.224 243.48 593.326 243.787 593.142 243.965L591.88 245.195C591.807 245.265 591.775 245.368 591.792 245.467L592.09 247.206C592.134 247.457 591.871 247.647 591.646 247.53L590.086 246.709C589.995 246.662 589.89 246.662 589.799 246.709Z" fill="#EFC04D"/>
<path d="M537.927 266.903L535.425 268.218C535.066 268.408 534.642 268.101 534.712 267.701L535.192 264.916C535.218 264.755 535.165 264.595 535.051 264.481L533.026 262.508C532.734 262.225 532.895 261.728 533.298 261.67L536.094 261.264C536.255 261.24 536.393 261.141 536.466 260.995L537.716 258.461C537.897 258.096 538.417 258.096 538.599 258.461L539.849 260.995C539.922 261.141 540.06 261.24 540.22 261.264L543.017 261.67C543.42 261.728 543.581 262.225 543.289 262.508L541.264 264.481C541.147 264.595 541.094 264.755 541.123 264.916L541.603 267.701C541.673 268.101 541.249 268.408 540.89 268.218L538.388 266.903C538.242 266.827 538.07 266.827 537.927 266.903Z" fill="#EFC04D"/>
<path d="M600.309 243.876L597.808 245.191C597.449 245.381 597.025 245.074 597.095 244.674L597.574 241.889C597.601 241.728 597.548 241.567 597.434 241.453L595.409 239.481C595.117 239.198 595.278 238.701 595.681 238.642L598.477 238.236C598.638 238.213 598.775 238.114 598.848 237.967L600.099 235.434C600.28 235.069 600.8 235.069 600.981 235.434L602.232 237.967C602.305 238.114 602.442 238.213 602.603 238.236L605.4 238.642C605.803 238.701 605.964 239.198 605.671 239.481L603.646 241.453C603.529 241.567 603.477 241.728 603.506 241.889L603.985 244.674C604.055 245.074 603.632 245.381 603.272 245.191L600.771 243.876C600.625 243.8 600.453 243.8 600.309 243.876Z" fill="#EFC04D"/>
<path d="M600.538 274.036C606.407 274.036 611.165 269.278 611.165 263.409C611.165 257.539 606.407 252.781 600.538 252.781C594.668 252.781 589.91 257.539 589.91 263.409C589.91 269.278 594.668 274.036 600.538 274.036Z" fill="#76AEFF"/>
<path d="M600.539 271.911C605.231 271.911 609.034 268.108 609.034 263.416C609.034 258.725 605.231 254.922 600.539 254.922C595.848 254.922 592.045 258.725 592.045 263.416C592.045 268.108 595.848 271.911 600.539 271.911Z" fill="#F8E9FF"/>
<path d="M603.4 261.967C603.839 261.967 604.195 261.506 604.195 260.939C604.195 260.369 603.839 259.91 603.4 259.91C602.962 259.91 602.605 260.372 602.605 260.939C602.605 261.509 602.962 261.967 603.4 261.967Z" fill="#0F30A0"/>
<path d="M596.951 260.479C596.948 260.488 596.945 260.494 596.942 260.502C596.936 260.523 596.928 260.54 596.922 260.561C596.919 260.572 596.916 260.584 596.913 260.596C596.907 260.613 596.904 260.631 596.898 260.648C596.895 260.663 596.893 260.681 596.89 260.695C596.887 260.71 596.884 260.724 596.881 260.739C596.878 260.759 596.875 260.78 596.875 260.8C596.875 260.812 596.872 260.824 596.872 260.835C596.869 260.868 596.869 260.903 596.869 260.935C596.869 260.982 596.872 261.028 596.878 261.075C596.878 261.087 596.881 261.098 596.881 261.11C596.887 261.154 596.893 261.198 596.904 261.242C596.916 261.285 596.928 261.326 596.942 261.367C596.945 261.376 596.948 261.385 596.951 261.394C596.983 261.475 597.021 261.548 597.068 261.616C597.071 261.621 597.077 261.627 597.08 261.633C597.126 261.7 597.182 261.759 597.24 261.806C597.246 261.808 597.249 261.814 597.255 261.817C597.375 261.911 597.512 261.963 597.661 261.963C598.099 261.963 598.456 261.502 598.456 260.935C598.456 260.365 598.099 259.906 597.661 259.906C597.372 259.906 597.12 260.105 596.983 260.403C596.983 260.406 596.98 260.409 596.98 260.412C596.968 260.435 596.96 260.456 596.951 260.479Z" fill="#0F30A0"/>
<path d="M596.882 261.109C596.888 261.153 596.893 261.197 596.905 261.241C596.917 261.284 596.929 261.325 596.943 261.366C596.946 261.375 596.949 261.384 596.952 261.393C596.984 261.474 597.022 261.547 597.069 261.615C597.072 261.62 597.078 261.626 597.08 261.632C597.127 261.699 597.183 261.758 597.241 261.805C597.396 261.168 597.639 260.554 597.954 259.975C597.864 259.929 597.764 259.902 597.659 259.902C597.37 259.902 597.118 260.101 596.981 260.399C596.981 260.402 596.978 260.405 596.978 260.408C596.969 260.428 596.958 260.452 596.949 260.475C596.946 260.484 596.943 260.49 596.94 260.498C596.934 260.519 596.926 260.536 596.92 260.557C596.917 260.569 596.914 260.58 596.911 260.592C596.905 260.609 596.902 260.627 596.896 260.645C596.893 260.659 596.891 260.677 596.888 260.691C596.885 260.706 596.882 260.721 596.879 260.735C596.876 260.756 596.873 260.776 596.873 260.796C596.873 260.808 596.87 260.82 596.87 260.832C596.867 260.864 596.867 260.899 596.867 260.931C596.867 260.978 596.87 261.024 596.876 261.071C596.879 261.089 596.879 261.097 596.882 261.109Z" fill="#523187"/>
<path d="M595.862 264.641C595.64 264.641 595.471 264.851 595.529 265.066C596.119 267.296 598.134 268.94 600.537 268.94C602.939 268.94 604.958 267.296 605.544 265.066C605.602 264.851 605.433 264.641 605.211 264.641C601.858 265.465 599.773 265.531 595.862 264.641Z" fill="#0F30A0"/>
<path d="M548.032 238.331C549.38 232.619 545.843 226.895 540.131 225.546C534.419 224.197 528.695 227.734 527.346 233.446C525.998 239.159 529.535 244.882 535.247 246.231C540.959 247.58 546.683 244.043 548.032 238.331Z" fill="#041C5B"/>
<path d="M545.964 237.848C547.042 233.283 544.215 228.708 539.649 227.63C535.084 226.551 530.509 229.379 529.431 233.944C528.352 238.51 531.18 243.085 535.745 244.163C540.311 245.241 544.886 242.414 545.964 237.848Z" fill="#F8E9FF"/>
<path d="M535.217 239.815C535.209 239.815 535.203 239.815 535.194 239.815C534.981 239.809 534.782 239.716 534.642 239.558L532.529 237.191C532.246 236.873 532.275 236.385 532.591 236.101C532.909 235.818 533.397 235.844 533.68 236.163L535.25 237.922L540.965 232.206C541.266 231.905 541.754 231.905 542.055 232.206C542.356 232.507 542.356 232.995 542.055 233.296L535.761 239.587C535.618 239.733 535.422 239.815 535.217 239.815Z" fill="#3ECA76"/>
<path d="M577.009 219.352H566.034C563.252 219.352 560.996 221.607 560.996 224.389C560.996 227.171 563.252 229.427 566.034 229.427H569.315C569.388 229.427 569.458 229.441 569.526 229.471L575.294 231.995C575.726 232.185 576.211 231.867 576.211 231.393V229.95C576.211 229.66 576.445 229.424 576.737 229.424H577.006C579.788 229.424 582.043 227.168 582.043 224.386C582.043 221.607 579.791 219.352 577.009 219.352Z" fill="#89B4EB"/>
<path d="M577.485 223.601H565.554C565.239 223.601 564.984 223.346 564.984 223.031C564.984 222.715 565.239 222.461 565.554 222.461H577.485C577.8 222.461 578.055 222.715 578.055 223.031C578.055 223.346 577.8 223.601 577.485 223.601Z" fill="white"/>
<path d="M577.485 226.308H565.554C565.239 226.308 564.984 226.053 564.984 225.738C564.984 225.422 565.239 225.168 565.554 225.168H577.485C577.8 225.168 578.055 225.422 578.055 225.738C578.055 226.05 577.8 226.308 577.485 226.308Z" fill="white"/>
<path d="M591.102 229.12H590.325V228.34H589.849V229.12H589.068V229.596H589.849V230.374H590.325V229.596H591.102V229.12Z" fill="#7858C4"/>
<path d="M535.864 249.742H535.084V248.965H534.61V249.742H533.83V250.218H534.61V250.996H535.084V250.218H535.864V249.742Z" fill="#7858C4"/>
<path d="M558.405 276.999H557.625V276.219H557.151V276.999H556.371V277.472H557.151V278.252H557.625V277.472H558.405V276.999Z" fill="#7858C4"/>
<path d="M615.417 251.999H614.639V251.219H614.163V251.999H613.383V252.472H614.163V253.252H614.639V252.472H615.417V251.999Z" fill="#7858C4"/>
<path d="M553.825 224.266C553.363 224.266 553.363 224.984 553.825 224.984C554.286 224.984 554.286 224.266 553.825 224.266Z" stroke="#EFC04D" stroke-width="0.7375" stroke-miterlimit="10"/>
<path d="M525.081 259.305C524.619 259.305 524.619 260.024 525.081 260.024C525.542 260.021 525.542 259.305 525.081 259.305Z" stroke="#EFC04D" stroke-width="0.7375" stroke-miterlimit="10"/>
<path d="M577.42 278.469C576.959 278.469 576.959 279.188 577.42 279.188C577.882 279.188 577.885 278.469 577.42 278.469Z" stroke="#EFC04D" stroke-width="0.7375" stroke-miterlimit="10"/>
<path d="M614.46 268.602C613.998 268.602 613.998 269.32 614.46 269.32C614.921 269.32 614.921 268.602 614.46 268.602Z" stroke="#EFC04D" stroke-width="0.7375" stroke-miterlimit="10"/>
<path d="M604.737 222.125C604.275 222.125 604.275 222.844 604.737 222.844C605.199 222.844 605.199 222.125 604.737 222.125Z" stroke="#EFC04D" stroke-width="0.7375" stroke-miterlimit="10"/>
<circle cx="197.311" cy="151.075" r="26.3441" fill="#1142A9" fill-opacity="0.6"/>
<circle cx="290.86" cy="173.657" r="26.3441" fill="#1142A9" fill-opacity="0.6"/>
<circle cx="270.429" cy="117.744" r="15.5914" fill="#1142A9" fill-opacity="0.6"/>
<circle cx="181.183" cy="218.818" r="15.5914" fill="#1142A9" fill-opacity="0.6"/>
<circle cx="197.312" cy="151.074" r="29.0699" stroke="black" stroke-dasharray="2 2"/>
<circle cx="290.861" cy="173.656" r="29.0699" stroke="black" stroke-dasharray="2 2"/>
<circle cx="270.429" cy="117.742" r="17.2419" stroke="black" stroke-dasharray="2 2"/>
<circle cx="181.183" cy="218.816" r="17.2419" stroke="black" stroke-dasharray="2 2"/>
<g opacity="0.64">
<path d="M270.209 116.23H273.593" stroke="#2CAC8D" stroke-linecap="round" stroke-linejoin="round"/>
<path d="M270.209 121.07H273.593" stroke="#2CAC8D" stroke-linecap="round" stroke-linejoin="round"/>
<path d="M273.592 109.461H275.284C275.732 109.461 276.163 109.665 276.48 110.028C276.797 110.391 276.976 110.883 276.976 111.396V124.943C276.976 125.457 276.797 125.949 276.48 126.312C276.163 126.675 275.732 126.879 275.284 126.879H265.131C264.683 126.879 264.252 126.675 263.935 126.312C263.618 125.949 263.439 125.457 263.439 124.943V111.396C263.439 110.883 263.618 110.391 263.935 110.028C264.252 109.665 264.683 109.461 265.131 109.461H266.823" stroke="#2CAC8D" stroke-linecap="round" stroke-linejoin="round"/>
<path d="M272.744 107.523H267.668C267.444 107.523 267.229 107.625 267.07 107.807C266.911 107.988 266.822 108.234 266.822 108.491V110.426C266.822 110.683 266.911 110.929 267.07 111.111C267.229 111.292 267.444 111.394 267.668 111.394H272.744C272.969 111.394 273.184 111.292 273.343 111.111C273.501 110.929 273.59 110.683 273.59 110.426V108.491C273.59 108.234 273.501 107.988 273.343 107.807C273.184 107.625 272.969 107.523 272.744 107.523V107.523Z" stroke="#2CAC8D" stroke-linecap="round" stroke-linejoin="round"/>
<path d="M267.671 120.102L266.507 122.037L265.979 121.157" stroke="#2CAC8D" stroke-linecap="round" stroke-linejoin="round"/>
<path d="M267.671 115.543L266.507 117.478L265.979 116.599" stroke="#2CAC8D" stroke-linecap="round" stroke-linejoin="round"/>
</g>
<path d="M286.03 173.684C288.561 173.684 290.612 171.633 290.612 169.102C290.612 166.571 288.561 164.52 286.03 164.52C283.499 164.52 281.447 166.571 281.447 169.102C281.447 171.633 283.499 173.684 286.03 173.684Z" stroke="#017FDB" stroke-miterlimit="10"/>
<path d="M291.469 176.487C290.949 175.447 288.955 174.164 288.955 174.164C281.598 171.994 278.422 177.721 277.627 179.512C277.515 179.762 277.702 180.027 277.976 180.027H293.05" stroke="#017FDB" stroke-miterlimit="10"/>
<path d="M293.796 176.427H291.245C291.076 176.427 290.983 176.23 291.092 176.099L294.48 172.033C294.518 171.987 294.575 171.961 294.634 171.961H300.413C300.466 171.961 300.517 171.982 300.554 172.02L304.621 176.086C304.747 176.212 304.657 176.427 304.479 176.427H293.796ZM293.796 176.427V183.671C293.796 183.782 293.886 183.871 293.996 183.871H301.04C301.15 183.871 301.24 183.782 301.24 183.671V177.172" stroke="#017FDB"/>
<path d="M297.518 179.402V183.869" stroke="#017FDB"/>
<path d="M186.093 217.422V225.959C186.093 227.063 185.197 227.959 184.093 227.959H176.051C174.946 227.959 174.051 227.063 174.051 225.959V217.422" stroke="#78C0E9" stroke-opacity="0.44"/>
<path d="M172.543 213.406H177.397V215.833C177.397 217.173 176.31 218.26 174.97 218.26C173.63 218.26 172.543 217.173 172.543 215.833V213.406Z" stroke="#78C0E9" stroke-opacity="0.44"/>
<path d="M177.561 213.406H182.414V215.833C182.414 217.173 181.328 218.26 179.987 218.26C178.647 218.26 177.561 217.173 177.561 215.833V213.406Z" stroke="#78C0E9" stroke-opacity="0.44"/>
<path d="M182.996 213.406H188.017V215.917C188.017 217.303 186.893 218.427 185.507 218.427C184.12 218.427 182.996 217.303 182.996 215.917V213.406Z" stroke="#78C0E9" stroke-opacity="0.44"/>
<path d="M178.064 227.958V221.934C178.064 221.381 178.512 220.934 179.064 220.934H181.078C181.631 220.934 182.078 221.381 182.078 221.934V227.958" stroke="#78C0E9" stroke-opacity="0.44"/>
<path d="M195.871 153.645C198.45 153.645 200.541 151.554 200.541 148.975C200.541 146.396 198.45 144.305 195.871 144.305C193.292 144.305 191.201 146.396 191.201 148.975C191.201 151.554 193.292 153.645 195.871 153.645Z" stroke="#51A1FF" stroke-miterlimit="10"/>
<path d="M187.096 160.11C187.096 160.11 190.012 151.526 198.854 154.134C198.854 154.134 203.296 155.563 204.49 160.108" stroke="#51A1FF" stroke-miterlimit="10"/>
<path d="M195.047 153.672L193.889 158.357C193.829 158.598 193.908 158.852 194.094 159.017L195.263 160.049C195.521 160.279 195.912 160.27 196.163 160.034L197.301 158.953C197.473 158.79 197.546 158.547 197.491 158.315L196.381 153.674" stroke="#51A1FF" stroke-miterlimit="10"/>
<path d="M198.461 144.531V141.859C198.461 141.307 198.909 140.859 199.461 140.859H205.417C205.969 140.859 206.417 141.307 206.417 141.859V153.498C206.417 154.05 205.969 154.498 205.417 154.498H199.597" stroke="#51A1FF"/>
<path d="M200.736 144.27L204.146 144.27" stroke="#51A1FF"/>
<path d="M200.736 147.68H204.146" stroke="#51A1FF"/>
<path d="M200.736 151.086H204.146" stroke="#51A1FF"/>
<path d="M216.129 172.582C221.514 195.673 241.476 235.44 286.021 238.711" stroke="#5476C0" stroke-dasharray="1 1"/>
<path d="M196.773 223.848C214.376 239.733 263.978 245.16 291.908 238.247" stroke="#5476C0" stroke-dasharray="1 1"/>
<path d="M287.635 238.709C299.284 238.53 327.957 226.881 346.237 203.225C366.88 176.511 392.832 177.42 403.764 183.334" stroke="#5473BF" stroke-dasharray="1 1"/>
<g filter="url(#filter1_d_1701_3412)">
<path d="M358.5 186.84L374.422 181.972L360.359 189.316L358.141 191.934L358.5 186.84Z" fill="black"/>
<path d="M358.141 191.935L359.754 189.246L368.356 184.945L358.141 191.935Z" fill="#01720C"/>
<path d="M358.587 187.109L374.154 182.064L354.871 182.156L358.587 187.109Z" fill="#06D01B"/>
<path d="M360.447 189.14L374.421 181.972L363.986 194.446L360.447 189.14Z" fill="#06D01B"/>
</g>
<circle cx="403.763" cy="183.332" r="1.6129" fill="white"/>
<defs>
<filter id="filter0_d_1701_3412" x="53.3301" y="346.52" width="704.402" height="157.141" filterUnits="userSpaceOnUse" color-interpolation-filters="sRGB">
<feFlood flood-opacity="0" result="BackgroundImageFix"/>
<feColorMatrix in="SourceAlpha" type="matrix" values="0 0 0 0 0 0 0 0 0 0 0 0 0 0 0 0 0 0 127 0" result="hardAlpha"/>
<feOffset dy="8"/>
<feGaussianBlur stdDeviation="13"/>
<feComposite in2="hardAlpha" operator="out"/>
<feColorMatrix type="matrix" values="0 0 0 0 0 0 0 0 0 0 0 0 0 0 0 0 0 0 0.06 0"/>
<feBlend mode="normal" in2="BackgroundImageFix" result="effect1_dropShadow_1701_3412"/>
<feBlend mode="normal" in="SourceGraphic" in2="effect1_dropShadow_1701_3412" result="shape"/>
</filter>
<filter id="filter1_d_1701_3412" x="353.871" y="181.973" width="27.5508" height="20.4727" filterUnits="userSpaceOnUse" color-interpolation-filters="sRGB">
<feFlood flood-opacity="0" result="BackgroundImageFix"/>
<feColorMatrix in="SourceAlpha" type="matrix" values="0 0 0 0 0 0 0 0 0 0 0 0 0 0 0 0 0 0 127 0" result="hardAlpha"/>
<feOffset dx="3" dy="4"/>
<feGaussianBlur stdDeviation="2"/>
<feComposite in2="hardAlpha" operator="out"/>
<feColorMatrix type="matrix" values="0 0 0 0 0 0 0 0 0 0 0 0 0 0 0 0 0 0 0.11 0"/>
<feBlend mode="normal" in2="BackgroundImageFix" result="effect1_dropShadow_1701_3412"/>
<feBlend mode="normal" in="SourceGraphic" in2="effect1_dropShadow_1701_3412" result="shape"/>
</filter>
<linearGradient id="paint0_linear_1701_3412" x1="315.187" y1="116.131" x2="456.659" y2="547.76" gradientUnits="userSpaceOnUse">
<stop stop-color="#0C78B5"/>
<stop offset="0.825048" stop-color="#D9D9D9" stop-opacity="0"/>
</linearGradient>
<linearGradient id="paint1_linear_1701_3412" x1="453.765" y1="0" x2="453.765" y2="600" gradientUnits="userSpaceOnUse">
<stop stop-color="#64ABFF"/>
<stop offset="1" stop-color="#D9D9D9" stop-opacity="0"/>
</linearGradient>
<linearGradient id="paint2_linear_1701_3412" x1="390.082" y1="155.757" x2="415.939" y2="222.202" gradientUnits="userSpaceOnUse">
<stop stop-color="#585BD5"/>
<stop offset="1" stop-color="#00CFF4"/>
</linearGradient>
<linearGradient id="paint3_linear_1701_3412" x1="390.082" y1="155.757" x2="415.939" y2="222.202" gradientUnits="userSpaceOnUse">
<stop stop-color="#585BD5"/>
<stop offset="1" stop-color="#00CFF4"/>
</linearGradient>
<linearGradient id="paint4_linear_1701_3412" x1="324.783" y1="285.176" x2="324.783" y2="373.532" gradientUnits="userSpaceOnUse">
<stop stop-color="#4B6DDA"/>
<stop offset="1" stop-color="#4B6DDA" stop-opacity="0"/>
</linearGradient>
<linearGradient id="paint5_linear_1701_3412" x1="296.088" y1="289.704" x2="362.559" y2="370.416" gradientUnits="userSpaceOnUse">
<stop stop-color="#585BD5"/>
<stop offset="1" stop-color="#00CFF4"/>
</linearGradient>
<linearGradient id="paint6_linear_1701_3412" x1="324.783" y1="285.176" x2="324.783" y2="373.532" gradientUnits="userSpaceOnUse">
<stop stop-color="#4B6DDA"/>
<stop offset="1" stop-color="#4B6DDA" stop-opacity="0"/>
</linearGradient>
<linearGradient id="paint7_linear_1701_3412" x1="296.088" y1="289.704" x2="362.559" y2="370.416" gradientUnits="userSpaceOnUse">
<stop stop-color="#585BD5"/>
<stop offset="1" stop-color="#00CFF4"/>
</linearGradient>
</defs>
</svg>
